<svg xmlns="http://www.w3.org/2000/svg" width="48" height="28" fill="none" viewBox="0 0 48 28"><path fill="#080808" d="M15.668 22.104a62.363 62.363 0 0 1-4.752-.036 75.02 75.02 0 0 0-4.68-.144l-.036-.036a80.736 80.736 0 0 1-.144-2.16c-.024-.864.024-1.644.144-2.34.12-.096.348-.156.684-.18.336-.024.708-.036 1.116-.036h1.332a5.989 5.989 0 0 0 1.224-.18c-.024-.888-.012-1.74.036-2.556.048-.816.012-1.632-.108-2.448v-.036a69.226 69.226 0 0 0-2.232-.036 33.01 33.01 0 0 1-2.196-.072l-.036-.036a5.813 5.813 0 0 1-.144-2.052c.096-.744.132-1.464.108-2.16l.036-.036h.108a26.23 26.23 0 0 1 2.376-.108c.792 0 1.584.012 2.376.036.792 0 1.572-.012 2.34-.036a15.25 15.25 0 0 0 2.34-.324v-.036c0-.84.024-1.692.072-2.556.072-.864.048-1.716-.072-2.556 0-.024-.24-.048-.72-.072a40.021 40.021 0 0 0-1.908-.036c-.792 0-1.704.012-2.736.036l-3.204.072c-1.104.024-2.208.06-3.312.108-1.08.024-2.088.06-3.024.108A133.01 133.01 0 0 0 .44 8.352c-.024 2.04-.024 4.08 0 6.12s.06 4.092.108 6.156c.048 2.04.072 4.104.072 6.192 2.328.192 4.752.252 7.272.18 2.544-.096 5.04-.132 7.488-.108.192-.72.3-1.488.324-2.304.024-.84.012-1.644-.036-2.412v-.072ZM18.096.828a66.532 66.532 0 0 0-.324 6.552c.024 2.184.072 4.368.144 6.552.072 2.184.12 4.368.144 6.552A65.437 65.437 0 0 1 17.88 27c.168-.048.504-.06 1.008-.036S19.92 27 20.472 27c.576.024 1.104.024 1.584 0 .48 0 .78-.072.9-.216-.048-.96-.084-2.124-.108-3.492-.024-1.392-.036-2.88-.036-4.464v-4.932a4627.132 4627.132 0 0 1 .144-9.396c.024-1.392.036-2.58.036-3.564L18.096.828ZM25.874.828a66.532 66.532 0 0 0-.324 6.552c.024 2.184.072 4.368.144 6.552.072 2.184.12 4.368.144 6.552a65.437 65.437 0 0 1-.18 6.516c.168-.048.504-.06 1.008-.036S27.698 27 28.25 27c.576.024 1.104.024 1.584 0 .48 0 .78-.072.9-.216-.048-.96-.084-2.124-.108-3.492-.024-1.392-.036-2.88-.036-4.464v-4.932a4627.132 4627.132 0 0 1 .144-9.396c.024-1.392.036-2.58.036-3.564L25.874.828ZM37.864 17.964c.24.048.624.084 1.152.108.528.024 1.116.036 1.764.036.672 0 1.368-.012 2.088-.036a54.964 54.964 0 0 0 3.672-.252c.48-.048.804-.096.972-.144a20.693 20.693 0 0 0 0-2.988 8.104 8.104 0 0 0-.648-2.7A5.442 5.442 0 0 0 45.352 9.9c-.672-.576-1.56-.96-2.664-1.152a9.864 9.864 0 0 0-2.664-.288 9.16 9.16 0 0 0-2.592.432 6.552 6.552 0 0 0-2.196 1.116 4.429 4.429 0 0 0-1.44 1.764 10.69 10.69 0 0 0-.576 2.448c-.072.816-.144 1.668-.216 2.556-.048.984-.024 1.968.072 2.952s.276 1.92.54 2.808c.264.864.612 1.668 1.044 2.412.432.72.972 1.308 1.62 1.764.576.336 1.2.552 1.872.648.672 0 1.404.024 2.196.072.816.048 1.608.048 2.376 0A7.419 7.419 0 0 0 44.848 27a3.314 3.314 0 0 0 1.584-1.224c.168-.144.3-.396.396-.756a8.55 8.55 0 0 0 .288-1.332c.072-.528.132-1.092.18-1.692l.144-1.836c-.264-.072-.6-.108-1.008-.108-.408-.024-.84-.024-1.296 0l-1.26.072c-.408 0-.732-.012-.972-.036.048.984-.108 1.728-.468 2.232-.336.48-.756.768-1.26.864-.504.096-1.02.012-1.548-.252a2.745 2.745 0 0 1-1.224-1.224 3.175 3.175 0 0 1-.468-1.332 95.29 95.29 0 0 1-.072-1.764v-.648Zm4.356-5.58c.432.216.768.54 1.008.972.264.432.396.888.396 1.368v.396c0 .048-.072.084-.216.108-.12 0-.336-.012-.648-.036-.312-.024-.78-.036-1.404-.036-.912 0-1.608.012-2.088.036-.456 0-.792-.012-1.008-.036-.216-.048-.336-.12-.36-.216 0-.12.024-.312.072-.576.048-.312.12-.612.216-.9.12-.288.288-.54.504-.756.216-.216.504-.384.864-.504s.828-.18 1.404-.18c.264 0 .492.036.684.108.192.048.384.132.576.252Z"/></svg>