<svg xmlns="http://www.w3.org/2000/svg" width="189" height="27" fill="none" viewBox="0 0 189 27"><path fill="#b7f7e6" d="M15.246 21.294a62.363 62.363 0 0 1-4.752-.036 75.018 75.018 0 0 0-4.68-.144l-.036-.036a80.736 80.736 0 0 1-.144-2.16c-.024-.864.024-1.644.144-2.34.12-.096.348-.156.684-.18.336-.024.708-.036 1.116-.036H8.91a5.988 5.988 0 0 0 1.224-.18c-.024-.888-.012-1.74.036-2.556.048-.816.012-1.632-.108-2.448v-.036a69.224 69.224 0 0 0-2.232-.036 33.01 33.01 0 0 1-2.196-.072l-.036-.036a5.814 5.814 0 0 1-.144-2.052c.096-.744.132-1.464.108-2.16l.036-.036h.108a26.23 26.23 0 0 1 2.376-.108c.792 0 1.584.012 2.376.036.792 0 1.572-.012 2.34-.036a15.25 15.25 0 0 0 2.34-.324v-.036c0-.84.024-1.692.072-2.556.072-.864.048-1.716-.072-2.556 0-.024-.24-.048-.72-.072a40.021 40.021 0 0 0-1.908-.036c-.792 0-1.704.012-2.736.036L6.57 1.17a152.6 152.6 0 0 0-3.312.108c-1.08.024-2.088.06-3.024.108a133.01 133.01 0 0 0-.216 6.156c-.024 2.04-.024 4.08 0 6.12s.06 4.092.108 6.156c.048 2.04.072 4.104.072 6.192 2.328.192 4.752.252 7.272.18 2.544-.096 5.04-.132 7.488-.108.192-.72.3-1.488.324-2.304.024-.84.012-1.644-.036-2.412v-.072ZM17.674.018a66.532 66.532 0 0 0-.324 6.552c.024 2.184.072 4.368.144 6.552.072 2.184.12 4.368.144 6.552a65.437 65.437 0 0 1-.18 6.516c.168-.048.504-.06 1.008-.036s1.032.036 1.584.036c.576.024 1.104.024 1.584 0 .48 0 .78-.072.9-.216-.048-.96-.084-2.124-.108-3.492-.024-1.392-.036-2.88-.036-4.464v-4.932a4628.374 4628.374 0 0 1 .144-9.396c.024-1.392.036-2.58.036-3.564L17.674.018ZM25.452.018a66.532 66.532 0 0 0-.324 6.552c.024 2.184.072 4.368.144 6.552.072 2.184.12 4.368.144 6.552a65.437 65.437 0 0 1-.18 6.516c.168-.048.504-.06 1.008-.036s1.032.036 1.584.036c.576.024 1.104.024 1.584 0 .48 0 .78-.072.9-.216-.048-.96-.084-2.124-.108-3.492-.024-1.392-.036-2.88-.036-4.464v-4.932a4628.374 4628.374 0 0 1 .144-9.396c.024-1.392.036-2.58.036-3.564L25.452.018ZM37.442 17.154c.24.048.624.084 1.152.108.528.024 1.116.036 1.764.036.672 0 1.368-.012 2.088-.036a54.964 54.964 0 0 0 3.672-.252c.48-.048.804-.096.972-.144a20.693 20.693 0 0 0 0-2.988 8.104 8.104 0 0 0-.648-2.7A5.443 5.443 0 0 0 44.93 9.09c-.672-.576-1.56-.96-2.664-1.152a9.863 9.863 0 0 0-2.664-.288 9.16 9.16 0 0 0-2.592.432 6.552 6.552 0 0 0-2.196 1.116 4.429 4.429 0 0 0-1.44 1.764 10.69 10.69 0 0 0-.576 2.448c-.072.816-.144 1.668-.216 2.556-.048.984-.024 1.968.072 2.952s.276 1.92.54 2.808c.264.864.612 1.668 1.044 2.412.432.72.972 1.308 1.62 1.764.576.336 1.2.552 1.872.648.672 0 1.404.024 2.196.072.816.048 1.608.048 2.376 0a7.419 7.419 0 0 0 2.124-.432 3.314 3.314 0 0 0 1.584-1.224c.168-.144.3-.396.396-.756a8.55 8.55 0 0 0 .288-1.332c.072-.528.132-1.092.18-1.692l.144-1.836c-.264-.072-.6-.108-1.008-.108-.408-.024-.84-.024-1.296 0l-1.26.072c-.408 0-.732-.012-.972-.036.048.984-.108 1.728-.468 2.232-.336.48-.756.768-1.26.864-.504.096-1.02.012-1.548-.252a2.745 2.745 0 0 1-1.224-1.224 3.175 3.175 0 0 1-.468-1.332 95.29 95.29 0 0 1-.072-1.764v-.648Zm4.356-5.58c.432.216.768.54 1.008.972.264.432.396.888.396 1.368v.396c0 .048-.072.084-.216.108-.12 0-.336-.012-.648-.036-.312-.024-.78-.036-1.404-.036-.912 0-1.608.012-2.088.036-.456 0-.792-.012-1.008-.036-.216-.048-.336-.12-.36-.216 0-.12.024-.312.072-.576.048-.312.12-.612.216-.9.12-.288.288-.54.504-.756.216-.216.504-.384.864-.504s.828-.18 1.404-.18c.264 0 .492.036.684.108.192.048.384.132.576.252ZM71.661.774c-.36-.024-.768-.036-1.224-.036a8.31 8.31 0 0 0-1.332.036c-.456.024-.9.072-1.332.144a7.432 7.432 0 0 0-1.044.252c.072 1.728.096 3.312.072 4.752 0 1.44-.072 2.988-.216 4.644h-.036c-.6.048-1.248.108-1.944.18a6.41 6.41 0 0 1-1.944-.144h-.036a25.146 25.146 0 0 1-.432-4.644c0-1.56-.108-3.168-.324-4.824A3.915 3.915 0 0 0 60.79.99c-.384 0-.78.012-1.188.036l-1.188.072a4.3 4.3 0 0 1-1.116-.072H57.19v.036c-.024 1.224-.048 2.604-.072 4.14 0 1.512.012 3.096.036 4.752l.072 4.896c.048 1.632.096 3.18.144 4.644.048 1.44.096 2.748.144 3.924.072 1.152.132 2.064.18 2.736.216-.12.528-.168.936-.144.432.024.888.06 1.368.108.48.048.96.072 1.44.072s.864-.084 1.152-.252c.12-.768.18-1.536.18-2.304.024-.792.024-1.596 0-2.412l-.072-2.448c0-.816.036-1.644.108-2.484a8.87 8.87 0 0 1 2.088-.252c.696 0 1.392.06 2.088.18l.036.036c.096.768.156 1.572.18 2.412.024.84.036 1.68.036 2.52l.072 2.556c.048.84.132 1.656.252 2.448h.036c.288-.024.636-.036 1.044-.036h1.296c.456 0 .912-.012 1.368-.036.48-.024.924-.072 1.332-.144l-.972-25.2ZM89.878 8.262a92.63 92.63 0 0 0-2.052-.108 88.286 88.286 0 0 1-1.476-.072h-.972a2.032 2.032 0 0 0-.54 0c-.144 0-.216.012-.216.036 0 .288-.036.576-.108.864-.048.264-.06.588-.036.972-.168-.408-.372-.72-.612-.936a1.982 1.982 0 0 0-.828-.504c-.312-.12-.66-.18-1.044-.18-.36-.024-.756-.036-1.188-.036a4.946 4.946 0 0 0-2.376.684c-.744.408-1.392.984-1.944 1.728-.528.72-.948 1.584-1.26 2.592-.312 1.008-.468 2.112-.468 3.312 0 .96.096 2.004.288 3.132a14.04 14.04 0 0 0 .972 3.132c.432.96.972 1.764 1.62 2.412a3.353 3.353 0 0 0 2.412.972c.84 0 1.692-.204 2.556-.612.888-.408 1.62-.9 2.196-1.476 0 .24-.024.444-.072.612a2.415 2.415 0 0 0-.072.648c0 .192.024.36.072.504a.55.55 0 0 0 .36.288c.264 0 .516-.012.756-.036.264-.048.528-.072.792-.072.384 0 .768.024 1.152.072.408.024.804.036 1.188.036h.432c.288-.048.432-.228.432-.54a12.2 12.2 0 0 0 .036-.936c.168-2.568.204-5.1.108-7.596-.096-2.52-.108-5.076-.036-7.668v-.36c0-.144-.012-.288-.036-.432 0-.144-.012-.288-.036-.432Zm-10.476 7.164c.12-.6.456-1.128 1.008-1.584.576-.48 1.356-.72 2.34-.72.504 0 .876.036 1.116.108.264.072.444.24.54.504.12.264.18.648.18 1.152.024.48.036 1.14.036 1.98 0 .672-.012 1.284-.036 1.836 0 .528-.072.984-.216 1.368-.12.36-.336.648-.648.864-.288.192-.732.288-1.332.288-1.008 0-1.8-.372-2.376-1.116-.552-.768-.828-1.692-.828-2.772 0-.312.012-.624.036-.936.024-.336.084-.66.18-.972ZM97.639 10.134a12.772 12.772 0 0 1-.036-.9c.024-.264.012-.6-.036-1.008 0-.072-.096-.108-.288-.108a2.916 2.916 0 0 0-.648 0c-.24.024-.48.06-.72.108-.24.024-.408.036-.504.036-.288.024-.528.048-.72.072h-1.08a18.093 18.093 0 0 0-.72-.072 197.38 197.38 0 0 0-.072 9.18c.072 2.952.108 5.904.108 8.856.576-.048 1.056-.06 1.44-.036.384.024.732.036 1.044.036.312.024.612.024.9 0a5.352 5.352 0 0 0 1.08-.216v-.144c.096-.792.144-1.584.144-2.376 0-.792-.024-1.584-.072-2.376l-.072-2.412a28.726 28.726 0 0 1 .036-2.484c.048-.648.216-1.128.504-1.44.288-.336.612-.552.972-.648.36-.12.72-.144 1.08-.072.384.048.672.12.864.216.024.024.048.036.072.036.024 0 .048.012.072.036.192.144.336.348.432.612.12.264.204.564.252.9.072.336.12.684.144 1.044.024.336.048.648.072.936.048.648.072 1.344.072 2.088.024.744.024 1.488 0 2.232v2.16c0 .696.024 1.32.072 1.872h2.232c.672.024 1.428-.024 2.268-.144a35.636 35.636 0 0 1-.036-2.844l.072-3.348c.024-1.176.036-2.328.036-3.456a45.028 45.028 0 0 0-.036-3.168c-.024-.96-.108-1.776-.252-2.448-.12-.696-.3-1.152-.54-1.368a4.284 4.284 0 0 0-1.692-.9 6.538 6.538 0 0 0-1.944-.216 6.543 6.543 0 0 0-1.908.36 6.613 6.613 0 0 0-1.692.864c-.12.096-.276.192-.468.288-.168.096-.312.18-.432.252ZM123.818 13.734c0-1.296-.24-2.46-.72-3.492-.48-1.056-1.284-1.824-2.412-2.304a16.006 16.006 0 0 0-2.052-.324 17.424 17.424 0 0 0-2.232-.144c-.744 0-1.452.036-2.124.108-.648.072-1.2.168-1.656.288-1.176.312-2.088.912-2.736 1.8a5.407 5.407 0 0 0-1.008 2.916c-.024 1.032.264 2.04.864 3.024.624.96 1.608 1.668 2.952 2.124a9.137 9.137 0 0 0 2.052.612c.696.12 1.32.264 1.872.432.552.144.996.36 1.332.648.336.288.468.72.396 1.296.024.696-.192 1.176-.648 1.44s-.96.372-1.512.324a3.695 3.695 0 0 1-1.584-.612c-.48-.36-.732-.816-.756-1.368-.744 0-1.62-.012-2.628-.036-1.008-.048-1.908-.024-2.7.072v.18c0 .96.192 1.824.576 2.592a5.87 5.87 0 0 0 1.656 1.944c.72.528 1.572.924 2.556 1.188.984.264 2.088.372 3.312.324 1.392.024 2.676-.216 3.852-.72 1.176-.504 2.04-1.344 2.592-2.52.456-1.32.624-2.424.504-3.312-.12-.912-.444-1.8-.972-2.664-.552-.72-1.416-1.236-2.592-1.548a28.36 28.36 0 0 0-3.78-.792c-.552-.192-.972-.48-1.26-.864-.288-.384-.432-.768-.432-1.152 0-.384.132-.732.396-1.044.288-.336.708-.552 1.26-.648.312-.024.624.024.936.144.336.096.624.252.864.468.264.216.456.468.576.756.144.288.18.576.108.864.816.168 1.68.24 2.592.216a19.951 19.951 0 0 0 2.556-.216ZM139.845 19.278c-.264-.072-.6-.108-1.008-.108-.408-.024-.84-.024-1.296 0-.456.024-.888.048-1.296.072-.408 0-.732-.012-.972-.036-.072.312-.18.672-.324 1.08-.12.384-.3.66-.54.828-.288.192-.672.324-1.152.396-.48.048-.948.024-1.404-.072a2.743 2.743 0 0 1-1.188-.648c-.312-.312-.444-.744-.396-1.296.048-.84.072-1.644.072-2.412s.048-1.524.144-2.268c.072-.384.18-.624.324-.72.312-.384.72-.648 1.224-.792.936-.24 1.692-.12 2.268.36.576.456.924 1.104 1.044 1.944.312.048.66.096 1.044.144a21.056 21.056 0 0 0 2.448.144c.408 0 .768-.036 1.08-.108a408.54 408.54 0 0 0-.072-2.196c0-.696-.048-1.32-.144-1.872a5.659 5.659 0 0 0-.432-1.44 2.187 2.187 0 0 0-.756-.972 4.878 4.878 0 0 0-1.8-1.08 8.29 8.29 0 0 0-2.196-.432 7.214 7.214 0 0 0-1.44 0 8.835 8.835 0 0 1-1.368-.036c-.576 0-1.152.036-1.728.108a6.963 6.963 0 0 0-1.584.396c-.48.168-.912.384-1.296.648a2.44 2.44 0 0 0-.792.936c-.072.24-.18.588-.324 1.044-.144.456-.228.816-.252 1.08a15.741 15.741 0 0 0-.216 2.592c.096.792.12 1.668.072 2.628-.024.96-.012 1.92.036 2.88.048.936.192 1.836.432 2.7a4.4 4.4 0 0 0 1.332 2.16c.84.84 1.872 1.368 3.096 1.584.672 0 1.416.024 2.232.072.816.072 1.608.072 2.376 0a7.419 7.419 0 0 0 2.124-.432 3.297 3.297 0 0 0 1.62-1.224c.168-.168.3-.432.396-.792a8.55 8.55 0 0 0 .288-1.332c.072-.528.132-1.092.18-1.692l.144-1.836ZM146.987 10.134V1.098c0-.528-.012-.852-.036-.972 0-.072-.096-.108-.288-.108a2.916 2.916 0 0 0-.648 0c-.24.024-.48.06-.72.108-.24.024-.408.036-.504.036-.288.024-.528.048-.72.072h-1.08a18.091 18.091 0 0 0-.72-.072 629.345 629.345 0 0 0-.072 3.744V18.306c.024 1.584.036 3.072.036 4.464.024 1.368.036 2.544.036 3.528.576-.048 1.056-.06 1.44-.036.384.024.732.036 1.044.036.312.024.612.024.9 0a5.352 5.352 0 0 0 1.08-.216v-.144c.096-.792.144-1.584.144-2.376 0-.792-.024-1.584-.072-2.376l-.072-2.412a28.726 28.726 0 0 1 .036-2.484c.048-.648.216-1.128.504-1.44.288-.336.612-.552.972-.648.36-.12.72-.144 1.08-.072.384.048.672.12.864.216.024.024.048.036.072.036.024 0 .048.012.072.036.192.144.336.348.432.612.12.264.204.564.252.9.072.336.12.684.144 1.044.024.336.048.648.072.936.048.648.072 1.344.072 2.088.024.744.024 1.488 0 2.232v2.16c0 .696.024 1.32.072 1.872h2.232c.672.024 1.428-.024 2.268-.144a35.636 35.636 0 0 1-.036-2.844l.072-3.348c.024-1.176.036-2.328.036-3.456a45.028 45.028 0 0 0-.036-3.168c-.024-.96-.108-1.776-.252-2.448-.12-.696-.3-1.152-.54-1.368a4.284 4.284 0 0 0-1.692-.9 6.538 6.538 0 0 0-1.944-.216 6.543 6.543 0 0 0-1.908.36 6.613 6.613 0 0 0-1.692.864c-.12.096-.276.192-.468.288-.168.096-.312.18-.432.252ZM163.088 17.154c.24.048.624.084 1.152.108.528.024 1.116.036 1.764.036.672 0 1.368-.012 2.088-.036a54.964 54.964 0 0 0 3.672-.252c.48-.048.804-.096.972-.144a20.693 20.693 0 0 0 0-2.988 8.104 8.104 0 0 0-.648-2.7 5.443 5.443 0 0 0-1.512-2.088c-.672-.576-1.56-.96-2.664-1.152a9.863 9.863 0 0 0-2.664-.288 9.16 9.16 0 0 0-2.592.432 6.552 6.552 0 0 0-2.196 1.116 4.429 4.429 0 0 0-1.44 1.764 10.69 10.69 0 0 0-.576 2.448c-.072.816-.144 1.668-.216 2.556-.048.984-.024 1.968.072 2.952s.276 1.92.54 2.808c.264.864.612 1.668 1.044 2.412.432.72.972 1.308 1.62 1.764.576.336 1.2.552 1.872.648.672 0 1.404.024 2.196.072.816.048 1.608.048 2.376 0a7.419 7.419 0 0 0 2.124-.432 3.314 3.314 0 0 0 1.584-1.224c.168-.144.3-.396.396-.756a8.55 8.55 0 0 0 .288-1.332c.072-.528.132-1.092.18-1.692l.144-1.836c-.264-.072-.6-.108-1.008-.108-.408-.024-.84-.024-1.296 0l-1.26.072c-.408 0-.732-.012-.972-.036.048.984-.108 1.728-.468 2.232-.336.48-.756.768-1.26.864-.504.096-1.02.012-1.548-.252a2.745 2.745 0 0 1-1.224-1.224 3.175 3.175 0 0 1-.468-1.332 95.29 95.29 0 0 1-.072-1.764v-.648Zm4.356-5.58c.432.216.768.54 1.008.972.264.432.396.888.396 1.368v.396c0 .048-.072.084-.216.108-.12 0-.336-.012-.648-.036-.312-.024-.78-.036-1.404-.036-.912 0-1.608.012-2.088.036-.456 0-.792-.012-1.008-.036-.216-.048-.336-.12-.36-.216 0-.12.024-.312.072-.576.048-.312.12-.612.216-.9.12-.288.288-.54.504-.756.216-.216.504-.384.864-.504s.828-.18 1.404-.18c.264 0 .492.036.684.108.192.048.384.132.576.252ZM179.912 10.134a12.772 12.772 0 0 1-.036-.9c.024-.264.012-.6-.036-1.008 0-.072-.096-.108-.288-.108a2.916 2.916 0 0 0-.648 0c-.24.024-.48.06-.72.108-.24.024-.408.036-.504.036-.288.024-.528.048-.72.072h-1.08a18.093 18.093 0 0 0-.72-.072 197.38 197.38 0 0 0-.072 9.18c.072 2.952.108 5.904.108 8.856.576-.048 1.056-.06 1.44-.036.384.024.732.036 1.044.036.312.024.612.024.9 0a5.352 5.352 0 0 0 1.08-.216v-.144c.096-.792.144-1.584.144-2.376 0-.792-.024-1.584-.072-2.376l-.072-2.412a28.726 28.726 0 0 1 .036-2.484c.048-.648.216-1.128.504-1.44.288-.336.612-.552.972-.648.36-.12.72-.144 1.08-.072.384.048.672.12.864.216.024.024.048.036.072.036.024 0 .048.012.072.036.192.144.336.348.432.612.12.264.204.564.252.9.072.336.12.684.144 1.044.024.336.048.648.072.936.048.648.072 1.344.072 2.088.024.744.024 1.488 0 2.232v2.16c0 .696.024 1.32.072 1.872h2.232c.672.024 1.428-.024 2.268-.144a35.636 35.636 0 0 1-.036-2.844l.072-3.348c.024-1.176.036-2.328.036-3.456a45.028 45.028 0 0 0-.036-3.168c-.024-.96-.108-1.776-.252-2.448-.12-.696-.3-1.152-.54-1.368a4.284 4.284 0 0 0-1.692-.9 6.538 6.538 0 0 0-1.944-.216 6.543 6.543 0 0 0-1.908.36 6.613 6.613 0 0 0-1.692.864c-.12.096-.276.192-.468.288-.168.096-.312.18-.432.252Z"/></svg>