<svg xmlns="http://www.w3.org/2000/svg" width="200" height="23" fill="none" viewBox="0 0 200 23">
  <path fill="currentColor" d="M0 22.306V1.559h12.983v3.946H4.678v4.168h7.064v3.914H4.678v4.773H13.3v3.946H0ZM21.983 22.688c-1.612 0-2.737-.478-3.373-1.432-.615-.976-.923-2.26-.923-3.85V0h4.678v17.596c0 .488.085.828.254 1.019.191.19.382.286.573.286h.255c.085-.021.19-.042.318-.064l.573 3.469a4.394 4.394 0 0 1-.987.254 6.393 6.393 0 0 1-1.368.128ZM31.724 22.688c-1.612 0-2.736-.478-3.373-1.432-.615-.976-.923-2.26-.923-3.85V0h4.678v17.596c0 .488.085.828.255 1.019.19.19.381.286.572.286h.255c.085-.021.19-.042.318-.064l.573 3.469a4.391 4.391 0 0 1-.987.254 6.391 6.391 0 0 1-1.368.128ZM44.234 22.688c-1.507 0-2.864-.33-4.073-.987-1.21-.657-2.164-1.601-2.864-2.832-.7-1.23-1.05-2.715-1.05-4.454 0-1.719.35-3.193 1.05-4.424.721-1.23 1.654-2.174 2.8-2.831 1.145-.68 2.344-1.019 3.596-1.019 1.506 0 2.747.34 3.723 1.019.997.657 1.739 1.559 2.227 2.704.51 1.124.764 2.408.764 3.85 0 .403-.022.806-.064 1.21a8.752 8.752 0 0 1-.127.859h-9.45c.211 1.145.689 1.994 1.431 2.545.742.53 1.633.796 2.673.796 1.124 0 2.26-.35 3.405-1.05l1.559 2.832c-.806.551-1.708.986-2.705 1.304-.997.319-1.962.478-2.895.478Zm-3.5-9.992h5.695c0-.87-.212-1.58-.636-2.132-.403-.573-1.072-.859-2.005-.859-.721 0-1.368.255-1.941.764-.573.488-.944 1.23-1.114 2.227ZM61.664 22.306V1.559h4.677v7.987h7.16V1.559h4.71v20.747H73.5V13.65h-7.16v8.655h-4.677ZM87.337 22.688c-1.443 0-2.588-.456-3.437-1.369-.848-.933-1.272-2.068-1.272-3.404 0-1.655.7-2.949 2.1-3.882 1.4-.934 3.66-1.56 6.777-1.878-.042-.7-.254-1.251-.636-1.654-.36-.425-.976-.637-1.846-.637-.657 0-1.325.127-2.004.382s-1.4.605-2.164 1.05L83.169 8.21a15.58 15.58 0 0 1 3.182-1.496 11.195 11.195 0 0 1 3.563-.573c2.016 0 3.564.584 4.646 1.75 1.082 1.167 1.623 2.96 1.623 5.378v9.037h-3.818l-.319-1.623h-.127a9.53 9.53 0 0 1-2.132 1.464c-.742.36-1.559.54-2.45.54Zm1.591-3.628c.53 0 .986-.116 1.368-.35a7.066 7.066 0 0 0 1.21-.986v-2.769c-1.655.213-2.8.552-3.437 1.019-.636.445-.955.976-.955 1.59 0 .51.16.892.478 1.146.339.233.784.35 1.336.35ZM100.776 22.306V6.523h3.818l.319 2.005h.127a12.145 12.145 0 0 1 2.227-1.655c.828-.488 1.772-.732 2.832-.732 1.719 0 2.96.573 3.723 1.719.785 1.124 1.178 2.672 1.178 4.645v9.8h-4.678V13.11c0-1.146-.159-1.93-.477-2.355-.297-.424-.785-.636-1.464-.636-.594 0-1.103.138-1.527.413-.425.255-.891.626-1.4 1.114v10.66h-4.678ZM124.268 22.688c-1.04 0-2.111-.202-3.214-.605-1.082-.403-2.026-.933-2.832-1.59l2.1-2.928c.721.53 1.411.944 2.068 1.24a5.3 5.3 0 0 0 2.005.414c.7 0 1.209-.116 1.527-.35.318-.254.478-.583.478-.986 0-.36-.16-.658-.478-.891-.297-.233-.689-.446-1.177-.637a39.674 39.674 0 0 0-1.559-.636 13.311 13.311 0 0 1-1.909-.954 5.4 5.4 0 0 1-1.56-1.464c-.424-.615-.636-1.358-.636-2.228 0-1.463.551-2.651 1.655-3.563 1.124-.913 2.588-1.369 4.391-1.369 1.209 0 2.27.212 3.182.637.933.403 1.729.859 2.386 1.368l-2.1 2.8a7.54 7.54 0 0 0-1.655-.986 4.214 4.214 0 0 0-1.654-.35c-1.209 0-1.814.413-1.814 1.24 0 .51.297.902.891 1.178.615.255 1.326.53 2.132.827.679.234 1.336.541 1.973.923.657.36 1.198.849 1.623 1.464.445.594.668 1.379.668 2.354 0 1.422-.552 2.63-1.655 3.628-1.103.976-2.715 1.464-4.836 1.464ZM141.239 22.688c-1.464 0-2.789-.319-3.977-.955-1.167-.657-2.101-1.602-2.801-2.832-.678-1.252-1.018-2.747-1.018-4.486 0-1.761.382-3.257 1.146-4.487.763-1.23 1.771-2.164 3.023-2.8a8.555 8.555 0 0 1 4.041-.987c.976 0 1.835.16 2.577.478a8.079 8.079 0 0 1 2.037 1.209l-2.196 3.023c-.742-.616-1.453-.923-2.132-.923-1.124 0-2.026.403-2.705 1.209-.657.806-.986 1.899-.986 3.277 0 1.358.329 2.45.986 3.278.679.806 1.528 1.21 2.546 1.21a3.72 3.72 0 0 0 1.496-.32c.488-.233.933-.508 1.336-.826l1.846 3.054c-.785.68-1.634 1.167-2.546 1.464a9.209 9.209 0 0 1-2.673.414ZM149.856 22.306V0h4.677v5.473l-.222 2.832a11.935 11.935 0 0 1 2.068-1.464c.806-.466 1.739-.7 2.8-.7 1.718 0 2.959.573 3.723 1.719.785 1.124 1.177 2.672 1.177 4.645v9.8h-4.677V13.11c0-1.146-.159-1.93-.477-2.355-.297-.424-.785-.636-1.464-.636-.594 0-1.103.138-1.527.413-.425.255-.891.626-1.401 1.114v10.66h-4.677ZM175.735 22.688c-1.506 0-2.864-.33-4.073-.987-1.209-.657-2.164-1.601-2.864-2.832-.7-1.23-1.05-2.715-1.05-4.454 0-1.719.35-3.193 1.05-4.424.721-1.23 1.655-2.174 2.8-2.831 1.146-.68 2.344-1.019 3.596-1.019 1.506 0 2.747.34 3.723 1.019.997.657 1.739 1.559 2.227 2.704.509 1.124.764 2.408.764 3.85a11.39 11.39 0 0 1-.191 2.069h-9.451c.213 1.145.69 1.994 1.432 2.545.743.53 1.634.796 2.673.796 1.124 0 2.259-.35 3.405-1.05l1.559 2.832c-.806.551-1.708.986-2.705 1.304-.997.319-1.962.478-2.895.478Zm-3.5-9.992h5.695c0-.87-.212-1.58-.636-2.132-.403-.573-1.071-.859-2.005-.859-.721 0-1.368.255-1.941.764-.573.488-.944 1.23-1.113 2.227ZM185.776 22.306V6.523h3.819l.318 2.005h.127a12.152 12.152 0 0 1 2.228-1.655c.827-.488 1.771-.732 2.832-.732 1.718 0 2.959.573 3.723 1.719.785 1.124 1.177 2.672 1.177 4.645v9.8h-4.678V13.11c0-1.146-.159-1.93-.477-2.355-.297-.424-.785-.636-1.464-.636-.594 0-1.103.138-1.527.413-.424.255-.891.626-1.4 1.114v10.66h-4.678Z"/>
</svg>